<svg width="32" height="32" viewBox="0 0 32 32" fill="none" xmlns="http://www.w3.org/2000/svg">
<path d="M18.2167 8C17.0082 8 15.8492 8.4272 14.9947 9.18762C14.1402 9.94804 13.6601 10.9794 13.6601 12.0548V14.3123H11.2217C11.0995 14.3123 11 14.4 11 14.5096V17.4904C11 17.5991 11.0985 17.6877 11.2217 17.6877H13.6601V23.8027C13.6601 23.9115 13.7586 24 13.8818 24H17.2315C17.3537 24 17.4532 23.9123 17.4532 23.8027V17.6877H19.9133C20.0148 17.6877 20.1034 17.6263 20.1281 17.5386L20.9655 14.5578C20.9738 14.5287 20.9744 14.4983 20.9675 14.469C20.9606 14.4396 20.9462 14.4121 20.9255 14.3884C20.9048 14.3647 20.8783 14.3456 20.848 14.3324C20.8177 14.3192 20.7844 14.3124 20.7507 14.3123H17.4532V12.0548C17.4532 11.9656 17.473 11.8772 17.5113 11.7948C17.5497 11.7123 17.6059 11.6374 17.6768 11.5743C17.7477 11.5113 17.8319 11.4612 17.9246 11.4271C18.0172 11.3929 18.1165 11.3753 18.2167 11.3753H20.7783C20.9005 11.3753 21 11.2877 21 11.1781V8.19726C21 8.08855 20.9015 8 20.7783 8H18.2167Z" fill="#666666"/>
</svg>
