<svg width="33" height="32" viewBox="0 0 33 32" fill="none" xmlns="http://www.w3.org/2000/svg">
<path d="M18.6855 8C17.477 8 16.318 8.4272 15.4635 9.18762C14.6089 9.94804 14.1288 10.9794 14.1288 12.0548V14.3123H11.6904C11.5683 14.3123 11.4688 14.4 11.4688 14.5096V17.4904C11.4688 17.5991 11.5673 17.6877 11.6904 17.6877H14.1288V23.8027C14.1288 23.9115 14.2274 24 14.3505 24H17.7003C17.8224 24 17.922 23.9123 17.922 23.8027V17.6877H20.3821C20.4835 17.6877 20.5722 17.6263 20.5968 17.5386L21.4343 14.5578C21.4425 14.5287 21.4432 14.4983 21.4362 14.469C21.4293 14.4396 21.4149 14.4121 21.3942 14.3884C21.3735 14.3647 21.347 14.3456 21.3167 14.3324C21.2865 14.3192 21.2532 14.3124 21.2195 14.3123H17.922V12.0548C17.922 11.9656 17.9417 11.8772 17.9801 11.7948C18.0184 11.7123 18.0747 11.6374 18.1456 11.5743C18.2165 11.5113 18.3007 11.4612 18.3933 11.4271C18.4859 11.3929 18.5852 11.3753 18.6855 11.3753H21.2471C21.3692 11.3753 21.4688 11.2877 21.4688 11.1781V8.19726C21.4688 8.08855 21.3702 8 21.2471 8H18.6855Z" fill="#87C1FF"/>
</svg>
