<svg width="24" height="24" viewBox="0 0 24 24" fill="none" xmlns="http://www.w3.org/2000/svg">
<path d="M13.7734 6C12.8066 6 11.8794 6.3204 11.1958 6.89072C10.5121 7.46103 10.1281 8.23455 10.1281 9.0411V10.7342H8.17734C8.07961 10.7342 8 10.8 8 10.8822V13.1178C8 13.1993 8.07882 13.2658 8.17734 13.2658H10.1281V17.8521C10.1281 17.9336 10.2069 18 10.3054 18H12.9852C13.083 18 13.1626 17.9342 13.1626 17.8521V13.2658H15.1306C15.2118 13.2658 15.2828 13.2197 15.3025 13.154L15.9724 10.9184C15.979 10.8965 15.9795 10.8738 15.974 10.8517C15.9684 10.8297 15.957 10.8091 15.9404 10.7913C15.9238 10.7736 15.9026 10.7592 15.8784 10.7493C15.8542 10.7394 15.8276 10.7343 15.8006 10.7342H13.1626V9.0411C13.1626 8.97418 13.1784 8.90791 13.2091 8.84608C13.2398 8.78426 13.2847 8.72808 13.3415 8.68076C13.3982 8.63344 13.4655 8.59591 13.5396 8.5703C13.6138 8.54469 13.6932 8.53151 13.7734 8.53151H15.8227C15.9204 8.53151 16 8.46575 16 8.38356V6.14795C16 6.06641 15.9212 6 15.8227 6H13.7734Z" fill="white" fill-opacity="0.6"/>
</svg>
