<svg xmlns="http://www.w3.org/2000/svg" viewBox="0 0 300 180" width="300" height="180" role="img" aria-label="United Kingdom">
  <rect width="300" height="180" fill="#012169" />
  <path d="M0,0 L30,0 L300,150 L300,180 L270,180 L0,30 Z" fill="#FFFFFF" />
  <path d="M300,0 L270,0 L0,150 L0,180 L30,180 L300,30 Z" fill="#FFFFFF" />
  <path d="M0,0 L18,0 L300,141 L300,180 L282,180 L0,39 Z" fill="#C8102E" />
  <path d="M300,0 L282,0 L0,141 L0,180 L18,180 L300,39 Z" fill="#C8102E" />
  <rect x="0" y="70" width="300" height="40" fill="#FFFFFF" />
  <rect x="130" y="0" width="40" height="180" fill="#FFFFFF" />
  <rect x="0" y="75" width="300" height="30" fill="#C8102E" />
  <rect x="135" y="0" width="30" height="180" fill="#C8102E" />
</svg>
