<svg width="32" height="32" viewBox="0 0 32 32" fill="none" xmlns="http://www.w3.org/2000/svg">
<g clip-path="url(#clip0_293_934)">
<path d="M11.9664 8.26361C12.5593 8.46692 13.1233 8.74797 13.6441 9.09958C14.3795 8.9093 15.1357 8.8137 15.8948 8.81506C16.6788 8.81506 17.4351 8.91416 18.144 9.09878C18.6646 8.74751 19.2283 8.46673 19.8208 8.26361C20.3711 8.0742 21.155 7.7673 21.6208 8.28918C21.9366 8.64403 22.0155 9.23864 22.0716 9.69259C22.1347 10.1993 22.1497 10.8594 21.984 11.5148C22.6179 12.3436 23 13.3322 23 14.4095C23 16.0415 22.1269 17.4585 20.8345 18.4399C20.2125 18.9063 19.5227 19.2719 18.7898 19.5236C18.9587 19.9153 19.0527 20.3484 19.0527 20.8032V23.2008C19.0527 23.4128 18.9695 23.616 18.8215 23.7659C18.6734 23.9158 18.4726 24 18.2632 24H13.5264C13.3171 24 13.1162 23.9158 12.9682 23.7659C12.8201 23.616 12.737 23.4128 12.737 23.2008V22.4088C11.983 22.5023 11.3507 22.4192 10.813 22.1882C10.2509 21.9468 9.85937 21.5728 9.5649 21.2148C9.28543 20.8759 8.9807 20.1119 8.54017 19.9632C8.44179 19.93 8.35082 19.8776 8.27246 19.8088C8.1941 19.7401 8.12988 19.6564 8.08348 19.5625C7.98976 19.3729 7.97428 19.1534 8.04044 18.9522C8.10661 18.7511 8.24899 18.5847 8.43628 18.4899C8.62357 18.395 8.84042 18.3793 9.03912 18.4463C9.5649 18.6237 9.90753 19.0074 10.142 19.3158C10.5209 19.8114 10.8288 20.4587 11.4288 20.7169C11.6759 20.8232 12.0383 20.8927 12.6051 20.8144L12.737 20.7872C12.7385 20.3523 12.8279 19.9222 12.9999 19.5236C12.2669 19.2719 11.5771 18.9063 10.9551 18.4399C9.66279 17.4585 8.78965 16.0423 8.78965 14.4095C8.78965 13.3338 9.17096 12.346 9.80332 11.518C9.63753 10.8626 9.65174 10.2009 9.7149 9.69339L9.71884 9.66302C9.77648 9.19788 9.84358 8.65042 10.1657 8.28918C10.6315 7.7673 11.4162 8.075 11.9657 8.26441L11.9664 8.26361Z" fill="#666666"/>
</g>
<defs>
<clipPath id="clip0_293_934">
<rect width="32" height="32" rx="16" fill="white"/>
</clipPath>
</defs>
</svg>
