<svg width="56" height="55" viewBox="0 0 56 55" fill="none" xmlns="http://www.w3.org/2000/svg">
<g clip-path="url(#clip0_541_651)" filter="url(#filter0_d_541_651)">
<path fill-rule="evenodd" clip-rule="evenodd" d="M28.0173 0C14.7353 0 4 10.7244 4 23.9923C4 34.5982 10.8794 43.5757 20.4227 46.753C21.6178 46.9919 22.0531 46.2369 22.0531 45.6016C22.0531 45.0455 22.0145 43.1388 22.0145 41.1523C15.3332 42.5826 13.9419 38.2923 13.9419 38.2923C12.8683 35.5118 11.2773 34.797 11.2773 34.797C9.09028 33.3272 11.4365 33.3272 11.4365 33.3272C13.8621 33.4862 15.1351 35.7901 15.1351 35.7901C17.282 39.4444 20.7416 38.4119 22.1336 37.7778C22.3322 36.2285 22.969 35.1559 23.6448 34.5604C18.3159 34.0038 12.7095 31.9385 12.7095 22.7225C12.7095 20.101 13.6632 17.9558 15.1744 16.2877C14.9358 15.6921 14.1008 13.2297 15.4134 9.932C15.4134 9.932 17.4412 9.29632 22.0141 12.3948C25.946 11.3352 30.0917 11.3352 34.0236 12.3948C38.5969 9.29632 40.6247 9.932 40.6247 9.932C41.9354 13.2289 41.1015 15.6921 40.8633 16.2877C42.4142 17.9558 43.3306 20.101 43.3306 22.7225C43.3306 31.9385 37.7241 33.9641 32.3555 34.5604C33.2306 35.3149 33.9854 36.7445 33.9854 39.009C33.9854 42.2264 33.9468 44.8085 33.9468 45.6028C33.9468 46.2385 34.3844 46.9934 35.5772 46.7549C45.1213 43.5769 51.9999 34.5993 51.9999 23.9938C52.0354 10.7244 41.2588 0 28.0173 0Z" fill="white"/>
</g>
<defs>
<filter id="filter0_d_541_651" x="0" y="0" width="56" height="56" filterUnits="userSpaceOnUse" color-interpolation-filters="sRGB">
<feFlood flood-opacity="0" result="BackgroundImageFix"/>
<feColorMatrix in="SourceAlpha" type="matrix" values="0 0 0 0 0 0 0 0 0 0 0 0 0 0 0 0 0 0 127 0" result="hardAlpha"/>
<feOffset dy="4"/>
<feGaussianBlur stdDeviation="2"/>
<feComposite in2="hardAlpha" operator="out"/>
<feColorMatrix type="matrix" values="0 0 0 0 0 0 0 0 0 0 0 0 0 0 0 0 0 0 0.25 0"/>
<feBlend mode="normal" in2="BackgroundImageFix" result="effect1_dropShadow_541_651"/>
<feBlend mode="normal" in="SourceGraphic" in2="effect1_dropShadow_541_651" result="shape"/>
</filter>
<clipPath id="clip0_541_651">
<rect width="48" height="48" fill="white" transform="translate(4)"/>
</clipPath>
</defs>
</svg>
