<svg width="24" height="24" viewBox="0 0 24 24" fill="none" xmlns="http://www.w3.org/2000/svg">
<g clip-path="url(#clip0_1299_437)">
<path d="M8.97484 6.19771C9.41948 6.35019 9.84248 6.56098 10.233 6.82468C10.7846 6.68197 11.3518 6.61028 11.9211 6.6113C12.5091 6.6113 13.0763 6.68562 13.608 6.82408C13.9984 6.56063 14.4212 6.35005 14.8656 6.19771C15.2783 6.05565 15.8663 5.82548 16.2156 6.21689C16.4524 6.48302 16.5117 6.92898 16.5537 7.26944C16.6011 7.64947 16.6123 8.14458 16.488 8.63609C16.9634 9.25767 17.25 9.99914 17.25 10.8071C17.25 12.0311 16.5951 13.0939 15.6259 13.8299C15.1594 14.1797 14.642 14.4539 14.0923 14.6427C14.219 14.9364 14.2895 15.2613 14.2895 15.6024V17.4006C14.2895 17.5596 14.2271 17.712 14.1161 17.8244C14.005 17.9368 13.8544 18 13.6974 18H10.1448C9.98779 18 9.83719 17.9368 9.72615 17.8244C9.61511 17.712 9.55272 17.5596 9.55272 17.4006V16.8066C8.98727 16.8767 8.513 16.8144 8.10978 16.6411C7.68821 16.4601 7.39453 16.1796 7.17367 15.9111C6.96407 15.6569 6.73552 15.0839 6.40513 14.9724C6.33134 14.9475 6.26311 14.9082 6.20434 14.8566C6.14557 14.8051 6.09741 14.7423 6.06261 14.6719C5.99232 14.5297 5.98071 14.365 6.03033 14.2142C6.07996 14.0633 6.18675 13.9386 6.32721 13.8674C6.46768 13.7962 6.63031 13.7845 6.77934 13.8347C7.17367 13.9678 7.43064 14.2555 7.6065 14.4869C7.8907 14.8585 8.12162 15.344 8.57162 15.5376C8.75694 15.6174 9.02872 15.6695 9.45384 15.6108L9.55272 15.5904C9.55385 15.2642 9.62096 14.9417 9.74989 14.6427C9.20018 14.4539 8.68282 14.1797 8.21636 13.8299C7.24709 13.0939 6.59223 12.0317 6.59223 10.8071C6.59223 10.0003 6.87822 9.25947 7.35249 8.63849C7.22815 8.14697 7.23881 7.65067 7.28617 7.27004L7.28913 7.24727C7.33236 6.89841 7.38268 6.48782 7.62426 6.21689C7.9736 5.82548 8.56214 6.05625 8.97424 6.19831L8.97484 6.19771Z" fill="white" fill-opacity="0.6"/>
</g>
<defs>
<clipPath id="clip0_1299_437">
<rect width="24" height="24" rx="12" fill="white"/>
</clipPath>
</defs>
</svg>
