<svg width="33" height="32" viewBox="0 0 33 32" fill="none" xmlns="http://www.w3.org/2000/svg">
<g clip-path="url(#clip0_290_460)">
<path d="M12.4352 8.26361C13.0281 8.46692 13.5921 8.74797 14.1128 9.09958C14.8483 8.9093 15.6045 8.8137 16.3636 8.81506C17.1475 8.81506 17.9038 8.91416 18.6128 9.09878C19.1333 8.74751 19.697 8.46673 20.2896 8.26361C20.8398 8.0742 21.6238 7.7673 22.0896 8.28918C22.4053 8.64403 22.4843 9.23864 22.5403 9.69259C22.6035 10.1993 22.6185 10.8594 22.4527 11.5148C23.0866 12.3436 23.4688 13.3322 23.4688 14.4095C23.4688 16.0415 22.5956 17.4585 21.3032 18.4399C20.6813 18.9063 19.9915 19.2719 19.2585 19.5236C19.4275 19.9153 19.5214 20.3484 19.5214 20.8032V23.2008C19.5214 23.4128 19.4383 23.616 19.2902 23.7659C19.1421 23.9158 18.9413 24 18.732 24H13.9952C13.7858 24 13.585 23.9158 13.4369 23.7659C13.2889 23.616 13.2057 23.4128 13.2057 23.2008V22.4088C12.4518 22.5023 11.8194 22.4192 11.2818 22.1882C10.7197 21.9468 10.3281 21.5728 10.0336 21.2148C9.75418 20.8759 9.44945 20.1119 9.00892 19.9632C8.91054 19.93 8.81957 19.8776 8.74121 19.8088C8.66285 19.7401 8.59863 19.6564 8.55223 19.5625C8.45851 19.3729 8.44303 19.1534 8.50919 18.9522C8.57536 18.7511 8.71774 18.5847 8.90503 18.4899C9.09232 18.395 9.30917 18.3793 9.50787 18.4463C10.0336 18.6237 10.3763 19.0074 10.6107 19.3158C10.9897 19.8114 11.2976 20.4587 11.8976 20.7169C12.1447 20.8232 12.507 20.8927 13.0739 20.8144L13.2057 20.7872C13.2072 20.3523 13.2967 19.9222 13.4686 19.5236C12.7357 19.2719 12.0458 18.9063 11.4239 18.4399C10.1315 17.4585 9.2584 16.0423 9.2584 14.4095C9.2584 13.3338 9.63971 12.346 10.2721 11.518C10.1063 10.8626 10.1205 10.2009 10.1836 9.69339L10.1876 9.66302C10.2452 9.19788 10.3123 8.65042 10.6344 8.28918C11.1002 7.7673 11.8849 8.075 12.4344 8.26441L12.4352 8.26361Z" fill="#87C1FF"/>
</g>
<defs>
<clipPath id="clip0_290_460">
<rect x="0.46875" width="32" height="32" rx="16" fill="white"/>
</clipPath>
</defs>
</svg>
