<svg width="17" height="17" viewBox="0 0 17 17" fill="none" xmlns="http://www.w3.org/2000/svg">
<path d="M15.0534 8.29532L1.98308 1.74219C1.92996 1.71563 1.86902 1.70938 1.81121 1.72344C1.6784 1.75625 1.59558 1.89063 1.6284 2.025L2.97527 7.52813C2.99558 7.61094 3.05652 7.67813 3.13777 7.70469L5.44558 8.49688L3.13933 9.28907C3.05808 9.31719 2.99715 9.38282 2.9784 9.46563L1.6284 14.9766C1.61433 15.0344 1.62058 15.0953 1.64715 15.1469C1.70808 15.2703 1.85808 15.3203 1.98308 15.2594L15.0534 8.74375C15.1018 8.72032 15.1409 8.67969 15.1659 8.63282C15.2268 8.50782 15.1768 8.35782 15.0534 8.29532ZM3.16902 13.4109L3.95496 10.1984L8.56746 8.61563C8.60339 8.60313 8.63308 8.57501 8.64558 8.53751C8.66746 8.47188 8.63308 8.40157 8.56746 8.37813L3.95496 6.79688L3.17215 3.59688L12.9846 8.51719L3.16902 13.4109Z" fill="white"/>
</svg>
