<svg width="20" height="18" viewBox="0 0 20 18" fill="none" xmlns="http://www.w3.org/2000/svg">
<path d="M8.96929 13.4688C8.96929 13.7423 9.07794 14.0046 9.27134 14.198C9.46474 14.3913 9.72704 14.5 10.0005 14.5C10.274 14.5 10.5363 14.3913 10.7297 14.198C10.9231 14.0046 11.0318 13.7423 11.0318 13.4688C11.0318 13.1952 10.9231 12.9329 10.7297 12.7395C10.5363 12.5462 10.274 12.4375 10.0005 12.4375C9.72704 12.4375 9.46474 12.5462 9.27134 12.7395C9.07794 12.9329 8.96929 13.1952 8.96929 13.4688ZM9.31304 6.9375V10.8906C9.31304 10.9852 9.39039 11.0625 9.48492 11.0625H10.5162C10.6107 11.0625 10.688 10.9852 10.688 10.8906V6.9375C10.688 6.84297 10.6107 6.76562 10.5162 6.76562H9.48492C9.39039 6.76562 9.31304 6.84297 9.31304 6.9375ZM19.5332 16.3906L10.5957 0.921875C10.4625 0.691992 10.2326 0.578125 10.0005 0.578125C9.76851 0.578125 9.53648 0.691992 9.40543 0.921875L0.467927 16.3906C0.203669 16.8504 0.534529 17.4219 1.06304 17.4219H18.938C19.4666 17.4219 19.7974 16.8504 19.5332 16.3906ZM2.70015 15.7912L10.0005 3.1541L17.3009 15.7912H2.70015Z" fill="#FF3B30"/>
</svg>
