<svg width="93" height="104" viewBox="0 0 93 104" fill="none" xmlns="http://www.w3.org/2000/svg">
<path d="M25.7001 52.8718L1.5188 77.9122C0.971954 78.4823 0 77.8377 0 76.9229V27.0965C0 26.1668 0.911086 25.5969 1.5188 26.0918C27.249 52.7367 26.839 51.6421 25.7001 52.8718Z" fill="#DD0710"/>
<path d="M73.0155 103.928L8.08216 88.1989C7.88251 88.134 7.70089 88.0239 7.55286 87.8773C7.40434 87.7302 7.29329 87.5509 7.22804 87.3538C7.16279 87.1567 7.14576 86.9472 7.1779 86.7424C7.21052 86.5371 7.29087 86.3429 7.41359 86.1747L33.8275 61.3736C34.0865 61.1453 34.426 61.0271 34.7727 61.0439C35.1194 61.0607 35.4456 61.2116 35.6808 61.4635L74.3974 101.574C75.628 102.848 74.7471 104.348 73.0155 103.928Z" fill="#EDEDED"/>
<path d="M74.3974 2.46069C32.6578 45.6596 35.1491 43.8752 33.8275 42.6456L7.41359 17.8448C7.29087 17.6765 7.21052 17.482 7.1779 17.2771C7.14576 17.0722 7.16279 16.8626 7.22804 16.6655C7.29329 16.4683 7.40434 16.289 7.55286 16.1422C7.70089 15.9955 7.88251 15.8853 8.08216 15.8206L73.0155 0.0914547C74.7471 -0.388366 75.628 1.11119 74.3974 2.46069Z" fill="#EDEDED"/>
<path d="M92.0014 10.8876V93.117C92.0014 94.6163 89.5423 94.961 88.1447 93.6414C41.4388 49.7828 43.3525 52.4219 44.826 51.0423L88.1447 10.3777C89.5423 9.05819 92.0014 9.35815 92.0014 10.8876Z" fill="#EDEDED"/>
</svg>
