<svg width="193" height="40" viewBox="0 0 193 40" fill="none" xmlns="http://www.w3.org/2000/svg">
<g clip-path="url(#clip0_117_52)">
<path d="M26.6532 9.9588V29.6173H22.5418V15.3751L13.7671 26.9724H12.845L4.11131 15.7545V29.6173H0V9.9588H4.52833L13.6672 21.6251L22.5654 9.9588H26.6532Z" fill="#EDEDED"/>
<path d="M103.864 9.9588H107.975V29.6173H103.864V9.9588Z" fill="#EDEDED"/>
<path d="M51.4975 17.6233H37.8715V21.2802H51.4975V17.6233Z" fill="#DD0710"/>
<path d="M58.0992 25.7825H37.8715V29.6175H58.0992V25.7825Z" fill="#EDEDED"/>
<path d="M57.9171 9.95319H37.8715V13.7883H57.9171V9.95319Z" fill="#EDEDED"/>
<path d="M135.075 9.95319H130.141L119.223 29.6174H123.434L132.408 13.2133L141.365 29.6174H146.07L135.075 9.95319Z" fill="#EDEDED"/>
<path d="M167.207 20.2743L157.857 29.8763C157.645 30.0949 157.27 29.8477 157.27 29.4969V10.3904C157.27 10.034 157.622 9.81543 157.857 10.0052C167.806 20.2225 167.648 19.8027 167.207 20.2743Z" fill="#DD0710"/>
<path d="M185.503 39.8524L160.394 33.8209C160.317 33.796 160.247 33.7538 160.19 33.6975C160.132 33.6411 160.089 33.5724 160.064 33.4968C160.039 33.4212 160.032 33.3409 160.045 33.2623C160.057 33.1836 160.088 33.1092 160.136 33.0446L170.35 23.5344C170.45 23.4468 170.581 23.4015 170.715 23.408C170.849 23.4144 170.975 23.4723 171.066 23.5689L186.037 38.9495C186.513 39.4384 186.172 40.0133 185.503 39.8524Z" fill="#EDEDED"/>
<path d="M186.037 0.943578C169.897 17.5087 170.861 16.8244 170.35 16.3529L160.136 6.8428C160.088 6.77825 160.057 6.70367 160.045 6.62509C160.032 6.54651 160.039 6.46616 160.064 6.39056C160.089 6.31495 160.132 6.24621 160.19 6.18992C160.247 6.13364 160.317 6.09139 160.394 6.0666L185.503 0.0350693C186.172 -0.148923 186.513 0.426098 186.037 0.943578Z" fill="#EDEDED"/>
<path d="M192.844 4.17495V35.7067C192.844 36.2817 191.893 36.4138 191.352 35.9078C173.292 19.0898 174.032 20.1017 174.602 19.5727L191.352 3.97945C191.893 3.47345 192.844 3.58848 192.844 4.17495Z" fill="#EDEDED"/>
<path d="M91.9472 13.7823C91.5121 12.6783 90.7254 11.7409 89.7035 11.1087C89.0149 10.673 88.2473 10.3705 87.4423 10.2175C86.3122 10.0233 85.1655 9.9366 84.0182 9.95877H69.335V13.7939H84.1415C85.7215 13.7939 86.8373 14.1158 87.4894 14.7713C88.1413 15.4268 88.4644 16.4962 88.4644 18.0774V21.4582C88.4644 23.0337 88.1354 24.1434 87.4894 24.7989C86.8434 25.4543 85.7273 25.7821 84.1415 25.7821H69.335V29.6173H84.0182C85.1657 29.6409 86.3127 29.5522 87.4423 29.3528C88.2444 29.2024 89.011 28.908 89.7035 28.4846C90.6077 27.9406 91.3193 27.1377 91.7416 26.1847C92.0672 25.5002 92.3001 24.7775 92.4347 24.0343C92.5902 23.0837 92.661 22.1218 92.6462 21.1592V18.3534C92.7011 16.8007 92.4643 15.2512 91.9472 13.7823Z" fill="#EDEDED"/>
</g>
<defs>
<clipPath id="clip0_117_52">
<rect width="193" height="40" fill="white"/>
</clipPath>
</defs>
</svg>
