<svg width="190" height="40" viewBox="0 0 190 40" fill="none" xmlns="http://www.w3.org/2000/svg">
<g clip-path="url(#clip0_1255_449)">
<path d="M26.1526 9.95874V29.6173H22.1184V15.375L13.5085 26.9723H12.6037L4.03409 15.7545V29.6173H0V9.95874H4.44327L13.4105 21.625L22.1415 9.95874H26.1526Z" fill="white"/>
<path d="M101.913 9.95874H105.947V29.6173H101.913V9.95874Z" fill="white"/>
<path d="M50.5302 17.6233H37.1602V21.2802H50.5302V17.6233Z" fill="#DD0710"/>
<path d="M57.0079 25.7825H37.1602V29.6175H57.0079V25.7825Z" fill="white"/>
<path d="M56.8293 9.95312H37.1602V13.7882H56.8293V9.95312Z" fill="white"/>
<path d="M132.538 9.95312H127.697L116.983 29.6173H121.115L129.921 13.2133L138.71 29.6173H143.326L132.538 9.95312Z" fill="white"/>
<path d="M164.066 20.2744L154.892 29.8764C154.684 30.095 154.315 29.8478 154.315 29.4971V10.3906C154.315 10.0341 154.661 9.81555 154.892 10.0053C164.654 20.2226 164.499 19.8029 164.066 20.2744Z" fill="#DD0710"/>
<path d="M182.019 39.8523L157.382 33.8207C157.307 33.7958 157.238 33.7536 157.181 33.6974C157.125 33.641 157.083 33.5723 157.058 33.4967C157.033 33.4211 157.027 33.3407 157.039 33.2622C157.052 33.1835 157.082 33.109 157.129 33.0445L167.151 23.5343C167.249 23.4467 167.378 23.4014 167.509 23.4078C167.641 23.4143 167.764 23.4722 167.854 23.5688L182.543 38.9494C183.01 39.4382 182.676 40.0132 182.019 39.8523Z" fill="white"/>
<path d="M182.543 0.943578C166.707 17.5087 167.652 16.8244 167.151 16.3529L157.129 6.8428C157.082 6.77825 157.052 6.70367 157.039 6.62509C157.027 6.54651 157.033 6.46616 157.058 6.39056C157.083 6.31495 157.125 6.24621 157.181 6.18992C157.238 6.13364 157.307 6.09139 157.382 6.0666L182.019 0.0350693C182.676 -0.148923 183.01 0.426098 182.543 0.943578Z" fill="white"/>
<path d="M189.222 4.17507V35.7069C189.222 36.2818 188.289 36.4139 187.759 35.908C170.038 19.0899 170.764 20.1019 171.323 19.5728L187.759 3.97957C188.289 3.47358 189.222 3.5886 189.222 4.17507Z" fill="white"/>
<path d="M90.2207 13.7823C89.7938 12.6783 89.0219 11.7408 88.0192 11.1087C87.3435 10.6729 86.5903 10.3704 85.8005 10.2175C84.6915 10.0232 83.5664 9.93654 82.4407 9.95871H68.0332V13.7938H82.5617C84.112 13.7938 85.2068 14.1158 85.8466 14.7713C86.4863 15.4267 86.8033 16.4962 86.8033 18.0774V21.4582C86.8033 23.0336 86.4805 24.1433 85.8466 24.7988C85.2127 25.4543 84.1177 25.782 82.5617 25.782H68.0332V29.6172H82.4407C83.5666 29.6408 84.6921 29.5522 85.8005 29.3527C86.5875 29.2023 87.3397 28.9079 88.0192 28.4845C88.9064 27.9406 89.6046 27.1376 90.019 26.1846C90.3384 25.5002 90.567 24.7774 90.6991 24.0342C90.8517 23.0836 90.9212 22.1218 90.9066 21.1592V18.3533C90.9605 16.8006 90.7281 15.2512 90.2207 13.7823Z" fill="white"/>
</g>
<defs>
<clipPath id="clip0_1255_449">
<rect width="189.375" height="40" fill="white"/>
</clipPath>
</defs>
</svg>
