<svg width="17" height="16" viewBox="0 0 17 16" fill="none" xmlns="http://www.w3.org/2000/svg">
<path d="M3.68653 6.92444C4.96653 9.44 7.02875 11.4933 9.54431 12.7822L11.4999 10.8267C11.7399 10.5867 12.0954 10.5067 12.4065 10.6133C13.4021 10.9422 14.4776 11.12 15.5799 11.12C16.0688 11.12 16.4688 11.52 16.4688 12.0089V15.1111C16.4688 15.6 16.0688 16 15.5799 16C7.23319 16 0.46875 9.23556 0.46875 0.888889C0.46875 0.4 0.86875 0 1.35764 0H4.46875C4.95764 0 5.35764 0.4 5.35764 0.888889C5.35764 2 5.53542 3.06667 5.86431 4.06222C5.96208 4.37333 5.89097 4.72 5.64208 4.96889L3.68653 6.92444Z" fill="white"/>
</svg>
