<svg width="33" height="32" viewBox="0 0 33 32" fill="none" xmlns="http://www.w3.org/2000/svg">
<g clip-path="url(#clip0_2230_386)">
<path d="M12.9352 8.26361C13.5281 8.46692 14.0921 8.74797 14.6128 9.09958C15.3483 8.9093 16.1045 8.8137 16.8636 8.81506C17.6475 8.81506 18.4038 8.91416 19.1128 9.09878C19.6333 8.74751 20.197 8.46673 20.7896 8.26361C21.3398 8.0742 22.1238 7.7673 22.5896 8.28918C22.9053 8.64403 22.9843 9.23864 23.0403 9.69259C23.1035 10.1993 23.1185 10.8594 22.9527 11.5148C23.5866 12.3436 23.9688 13.3322 23.9688 14.4095C23.9688 16.0415 23.0956 17.4585 21.8032 18.4399C21.1813 18.9063 20.4915 19.2719 19.7585 19.5236C19.9275 19.9153 20.0214 20.3484 20.0214 20.8032V23.2008C20.0214 23.4128 19.9383 23.616 19.7902 23.7659C19.6421 23.9158 19.4413 24 19.232 24H14.4952C14.2858 24 14.085 23.9158 13.9369 23.7659C13.7889 23.616 13.7057 23.4128 13.7057 23.2008V22.4088C12.9518 22.5023 12.3194 22.4192 11.7818 22.1882C11.2197 21.9468 10.8281 21.5728 10.5336 21.2148C10.2542 20.8759 9.94945 20.1119 9.50892 19.9632C9.41054 19.93 9.31957 19.8776 9.24121 19.8088C9.16285 19.7401 9.09863 19.6564 9.05223 19.5625C8.95851 19.3729 8.94303 19.1534 9.00919 18.9522C9.07536 18.7511 9.21774 18.5847 9.40503 18.4899C9.59232 18.395 9.80917 18.3793 10.0079 18.4463C10.5336 18.6237 10.8763 19.0074 11.1107 19.3158C11.4897 19.8114 11.7976 20.4587 12.3976 20.7169C12.6447 20.8232 13.007 20.8927 13.5739 20.8144L13.7057 20.7872C13.7072 20.3523 13.7967 19.9222 13.9686 19.5236C13.2357 19.2719 12.5458 18.9063 11.9239 18.4399C10.6315 17.4585 9.7584 16.0423 9.7584 14.4095C9.7584 13.3338 10.1397 12.346 10.7721 11.518C10.6063 10.8626 10.6205 10.2009 10.6836 9.69339L10.6876 9.66302C10.7452 9.19788 10.8123 8.65042 11.1344 8.28918C11.6002 7.7673 12.3849 8.075 12.9344 8.26441L12.9352 8.26361Z" fill="white" fill-opacity="0.6"/>
</g>
<defs>
<clipPath id="clip0_2230_386">
<rect x="0.96875" width="32" height="32" rx="16" fill="white"/>
</clipPath>
</defs>
</svg>
