<svg width="18" height="19" viewBox="0 0 18 19" fill="none" xmlns="http://www.w3.org/2000/svg">
<path d="M9 15.0125C10.525 13.6125 11.6562 12.3407 12.3937 11.1972C13.1312 10.0538 13.5 9.038 13.5 8.15C13.5 6.7875 13.0658 5.672 12.1973 4.8035C11.3288 3.935 10.263 3.5005 9 3.5C7.737 3.4995 6.6715 3.934 5.8035 4.8035C4.9355 5.673 4.501 6.7885 4.5 8.15C4.5 9.0375 4.86875 10.0532 5.60625 11.1972C6.34375 12.3412 7.475 13.613 9 15.0125ZM9 16.4938C8.825 16.4938 8.65 16.4625 8.475 16.4C8.3 16.3375 8.14375 16.2438 8.00625 16.1188C7.19375 15.3688 6.475 14.6375 5.85 13.925C5.225 13.2125 4.70325 12.522 4.28475 11.8535C3.86625 11.185 3.5475 10.5413 3.3285 9.92225C3.1095 9.30325 3 8.7125 3 8.15C3 6.275 3.60325 4.78125 4.80975 3.66875C6.01625 2.55625 7.413 2 9 2C10.587 2 11.984 2.55625 13.191 3.66875C14.398 4.78125 15.001 6.275 15 8.15C15 8.7125 14.8907 9.30325 14.6722 9.92225C14.4537 10.5413 14.135 11.185 13.716 11.8535C13.297 12.522 12.775 13.2125 12.15 13.925C11.525 14.6375 10.8063 15.3688 9.99375 16.1188C9.85625 16.2438 9.7 16.3375 9.525 16.4C9.35 16.4625 9.175 16.4938 9 16.4938ZM9 9.5C9.4125 9.5 9.76575 9.35325 10.0598 9.05975C10.3538 8.76625 10.5005 8.413 10.5 8C10.4995 7.587 10.3528 7.234 10.0598 6.941C9.76675 6.648 9.4135 6.501 9 6.5C8.5865 6.499 8.2335 6.646 7.941 6.941C7.6485 7.236 7.5015 7.589 7.5 8C7.4985 8.411 7.6455 8.76425 7.941 9.05975C8.2365 9.35525 8.5895 9.502 9 9.5Z" fill="#404040"/>
</svg>
