<svg width="19" height="19" viewBox="0 0 19 19" fill="none" xmlns="http://www.w3.org/2000/svg">
<path d="M9.5 1.625C5.15117 1.625 1.625 5.15117 1.625 9.5C1.625 13.8488 5.15117 17.375 9.5 17.375C13.8488 17.375 17.375 13.8488 17.375 9.5C17.375 5.15117 13.8488 1.625 9.5 1.625ZM9.5 16.0391C5.88945 16.0391 2.96094 13.1105 2.96094 9.5C2.96094 5.88945 5.88945 2.96094 9.5 2.96094C13.1105 2.96094 16.0391 5.88945 16.0391 9.5C16.0391 13.1105 13.1105 16.0391 9.5 16.0391ZM10.3385 9.09219L9.89199 8.98848V6.62773C10.56 6.71914 10.973 7.1375 11.0434 7.65078C11.0521 7.72109 11.1119 7.77207 11.1822 7.77207H11.9715C12.0541 7.77207 12.1191 7.7 12.1121 7.61738C12.0049 6.52227 11.1031 5.81914 9.89902 5.69785V5.12305C9.89902 5.0457 9.83574 4.98242 9.7584 4.98242H9.26445C9.18711 4.98242 9.12383 5.0457 9.12383 5.12305V5.70312C7.8793 5.82441 6.90547 6.51172 6.90547 7.79492C6.90547 8.9832 7.78086 9.55625 8.7002 9.77598L9.13438 9.88672V12.3951C8.35742 12.2914 7.92148 11.8766 7.83184 11.3176C7.82129 11.2508 7.76152 11.2016 7.69297 11.2016H6.88086C6.79824 11.2016 6.7332 11.2719 6.74023 11.3545C6.81934 12.3213 7.55234 13.2107 9.1168 13.325V13.877C9.1168 13.9543 9.18008 14.0176 9.25742 14.0176H9.75664C9.83398 14.0176 9.89727 13.9543 9.89727 13.8752L9.89375 13.318C11.2701 13.1967 12.2545 12.4602 12.2545 11.1383C12.2527 9.91836 11.4775 9.37344 10.3385 9.09219ZM9.13262 8.80742C9.03418 8.7793 8.95156 8.75293 8.86895 8.71953C8.2748 8.50508 7.99883 8.15879 7.99883 7.7123C7.99883 7.07422 8.48223 6.71035 9.13262 6.62773V8.80742ZM9.89199 12.4004V10.0502C9.94648 10.066 9.9957 10.0783 10.0467 10.0889C10.8781 10.342 11.1576 10.6936 11.1576 11.2332C11.1576 11.9205 10.6408 12.3336 9.89199 12.4004Z" fill="#404040"/>
</svg>
