<svg width="33" height="32" viewBox="0 0 33 32" fill="none" xmlns="http://www.w3.org/2000/svg">
<path d="M19.1855 8C17.977 8 16.818 8.4272 15.9635 9.18762C15.1089 9.94804 14.6288 10.9794 14.6288 12.0548V14.3123H12.1904C12.0683 14.3123 11.9688 14.4 11.9688 14.5096V17.4904C11.9688 17.5991 12.0673 17.6877 12.1904 17.6877H14.6288V23.8027C14.6288 23.9115 14.7274 24 14.8505 24H18.2003C18.3224 24 18.422 23.9123 18.422 23.8027V17.6877H20.8821C20.9835 17.6877 21.0722 17.6263 21.0968 17.5386L21.9343 14.5578C21.9425 14.5287 21.9432 14.4983 21.9362 14.469C21.9293 14.4396 21.9149 14.4121 21.8942 14.3884C21.8735 14.3647 21.847 14.3456 21.8167 14.3324C21.7865 14.3192 21.7532 14.3124 21.7195 14.3123H18.422V12.0548C18.422 11.9656 18.4417 11.8772 18.4801 11.7948C18.5184 11.7123 18.5747 11.6374 18.6456 11.5743C18.7165 11.5113 18.8007 11.4612 18.8933 11.4271C18.9859 11.3929 19.0852 11.3753 19.1855 11.3753H21.7471C21.8692 11.3753 21.9688 11.2877 21.9688 11.1781V8.19726C21.9688 8.08855 21.8702 8 21.7471 8H19.1855Z" fill="white" fill-opacity="0.6"/>
</svg>
