<svg width="48" height="48" viewBox="0 0 48 48" fill="none" xmlns="http://www.w3.org/2000/svg">
<g clip-path="url(#clip0_541_645)">
<path d="M41.3121 41.3114C50.6847 31.9388 50.6847 16.7428 41.3121 7.37026C31.9395 -2.00232 16.7435 -2.00232 7.37095 7.37026C-2.00163 16.7428 -2.00163 31.9388 7.37095 41.3114C16.7435 50.684 31.9395 50.684 41.3121 41.3114Z" fill="#333333"/>
<path d="M35.6792 13.8058L31.3924 35.4182C31.3924 35.4182 30.7935 36.9173 29.1442 36.1978L19.2521 28.6142L15.655 26.875L9.60012 24.8372C9.60012 24.8372 8.67116 24.5072 8.58123 23.7878C8.4913 23.0683 9.62979 22.679 9.62979 22.679L33.7008 13.2365C33.7008 13.2365 35.6792 12.3669 35.6792 13.8058Z" fill="white"/>
<path d="M18.4915 35.1759C18.4915 35.1759 18.2029 35.148 17.8431 34.0068C17.4834 32.8657 15.6543 26.872 15.6543 26.872L30.193 17.6426C30.193 17.6426 31.032 17.1327 31.0023 17.6426C31.0023 17.6426 31.1525 17.7326 30.7029 18.1516C30.2532 18.5707 19.282 28.434 19.282 28.434" fill="#B2B2B2"/>
<path d="M23.0452 31.5214L19.1325 35.0889C19.1325 35.0889 18.8267 35.3209 18.4922 35.1788L19.2458 28.5493" fill="#808080"/>
</g>
<defs>
<clipPath id="clip0_541_645">
<rect width="48" height="48" fill="white"/>
</clipPath>
</defs>
</svg>
