<svg width="48" height="48" viewBox="0 0 48 48" fill="none" xmlns="http://www.w3.org/2000/svg">
<circle cx="24" cy="24" r="24" fill="#333333"/>
<path d="M35.3291 18.2735C35.3474 18.5469 35.3474 18.8203 35.3474 19.0962C35.3474 27.5037 29.156 37.2 17.8349 37.2V37.195C14.4906 37.2 11.2157 36.2097 8.40039 34.3425C8.88668 34.403 9.37541 34.4332 9.86535 34.4345C12.6368 34.437 15.3291 33.4757 17.5095 31.7055C14.8757 31.6538 12.5661 29.8786 11.7593 27.2869C12.6819 27.4709 13.6326 27.4331 14.5381 27.1773C11.6667 26.5776 9.60088 23.9696 9.60088 20.9407C9.60088 20.913 9.60088 20.8865 9.60088 20.8601C10.4565 21.3527 11.4144 21.6261 12.3943 21.6564C9.68985 19.7879 8.85621 16.0686 10.4894 13.1607C13.6143 17.1358 18.2249 19.5523 23.1743 19.8081C22.6783 17.5982 23.3559 15.2824 24.9549 13.7289C27.4339 11.32 31.3328 11.4434 33.663 14.0049C35.0415 13.7239 36.3626 13.201 37.5716 12.4602C37.1122 13.933 36.1505 15.1841 34.866 15.9792C36.0859 15.8305 37.2779 15.4928 38.4004 14.9775C37.5741 16.2576 36.5332 17.3726 35.3291 18.2735Z" fill="white"/>
</svg>
